<svg xmlns="http://www.w3.org/2000/svg" xmlns:xlink="http://www.w3.org/1999/xlink" width="728" height="90" viewBox="0 0 728 90"><rect width="100%" height="100%" fill="#DDDDDD"/><path d="M268.58 27.29L293.06 27.29L293.06 29.91Q293.06 31.08 292.82 31.81Q292.57 32.53 292.33 33.02L292.33 33.02L278.90 60.66Q278.48 61.51 277.72 62.11Q276.96 62.71 275.69 62.71L275.69 62.71L271.30 62.71L285.00 35.64Q285.47 34.81 285.92 34.11Q286.37 33.41 286.94 32.77L286.94 32.77L269.98 32.77Q269.42 32.77 269.00 32.36Q268.58 31.94 268.58 31.38L268.58 31.38L268.58 27.29ZM309.67 57.08L318.76 57.08Q319.74 57.08 320.32 57.63Q320.89 58.18 320.89 59.09L320.89 59.09L320.89 62.71L296.59 62.71L296.59 60.70Q296.59 60.09 296.85 59.42Q297.10 58.74 297.67 58.21L297.67 58.21L308.42 47.43Q309.77 46.05 310.83 44.80Q311.90 43.55 312.61 42.33Q313.32 41.10 313.70 39.84Q314.08 38.58 314.08 37.18L314.08 37.18Q314.08 35.91 313.71 34.94Q313.35 33.97 312.67 33.31Q312.00 32.65 311.06 32.32Q310.11 31.99 308.94 31.99L308.94 31.99Q307.86 31.99 306.94 32.30Q306.02 32.60 305.31 33.15Q304.60 33.71 304.11 34.44Q303.62 35.18 303.37 36.06L303.37 36.06Q302.96 37.18 302.30 37.55Q301.64 37.92 300.39 37.72L300.39 37.72L297.20 37.16Q297.57 34.61 298.62 32.69Q299.68 30.77 301.26 29.48Q302.84 28.19 304.88 27.54Q306.93 26.89 309.28 26.89L309.28 26.89Q311.73 26.89 313.76 27.62Q315.80 28.34 317.24 29.66Q318.69 30.99 319.50 32.85Q320.30 34.71 320.30 36.99L320.30 36.99Q320.30 38.95 319.73 40.61Q319.15 42.28 318.19 43.80Q317.22 45.32 315.92 46.74Q314.62 48.16 313.20 49.63L313.20 49.63L305.21 57.79Q306.36 57.45 307.50 57.26Q308.64 57.08 309.67 57.08L309.67 57.08ZM337.36 58.38L337.36 58.38Q338.85 58.38 339.98 57.95Q341.10 57.52 341.88 56.76Q342.65 56.00 343.04 54.95Q343.43 53.89 343.43 52.67L343.43 52.67Q343.43 49.75 341.82 48.26Q340.20 46.76 337.36 46.76L337.36 46.76Q334.51 46.76 332.90 48.26Q331.28 49.75 331.28 52.67L331.28 52.67Q331.28 53.89 331.67 54.95Q332.06 56.00 332.84 56.76Q333.61 57.52 334.73 57.95Q335.86 58.38 337.36 58.38ZM337.36 31.45L337.36 31.45Q336.01 31.45 335.03 31.87Q334.05 32.28 333.40 32.98Q332.75 33.68 332.44 34.59Q332.14 35.49 332.14 36.50L332.14 36.50Q332.14 37.55 332.39 38.54Q332.65 39.54 333.26 40.31Q333.88 41.08 334.88 41.55Q335.89 42.01 337.36 42.01L337.36 42.01Q338.83 42.01 339.83 41.55Q340.84 41.08 341.45 40.31Q342.06 39.54 342.32 38.54Q342.57 37.55 342.57 36.50L342.57 36.50Q342.57 35.49 342.26 34.59Q341.94 33.68 341.30 32.98Q340.66 32.28 339.68 31.87Q338.70 31.45 337.36 31.45ZM343.33 44.24L343.33 44.24Q346.57 45.29 348.11 47.46Q349.66 49.63 349.66 52.77L349.66 52.77Q349.66 55.12 348.76 57.03Q347.87 58.94 346.25 60.29Q344.63 61.64 342.37 62.37Q340.10 63.11 337.36 63.11L337.36 63.11Q334.61 63.11 332.35 62.37Q330.08 61.64 328.46 60.29Q326.85 58.94 325.95 57.03Q325.06 55.12 325.06 52.77L325.06 52.77Q325.06 49.63 326.60 47.46Q328.14 45.29 331.38 44.24L331.38 44.24Q328.81 43.16 327.52 41.18Q326.23 39.19 326.23 36.40L326.23 36.40Q326.23 34.39 327.05 32.65Q327.87 30.91 329.34 29.63Q330.81 28.34 332.86 27.62Q334.91 26.89 337.36 26.89L337.36 26.89Q339.81 26.89 341.85 27.62Q343.90 28.34 345.37 29.63Q346.84 30.91 347.66 32.65Q348.48 34.39 348.48 36.40L348.48 36.40Q348.48 39.19 347.19 41.18Q345.91 43.16 343.33 44.24ZM389.25 54.60L386.04 57.76L377.73 49.46L369.35 57.81L366.14 54.65L374.52 46.25L366.54 38.26L369.72 35.08L377.71 43.06L385.65 35.13L388.88 38.31L380.92 46.27L389.25 54.60ZM411.89 37.92L411.89 37.92Q411.89 40.88 413.42 42.44Q414.95 44.00 417.77 44.00L417.77 44.00Q419.24 44.00 420.39 43.53Q421.54 43.06 422.32 42.26Q423.11 41.45 423.51 40.34Q423.91 39.24 423.91 37.97L423.91 37.97Q423.91 36.52 423.47 35.38Q423.03 34.24 422.22 33.46Q421.42 32.68 420.30 32.26Q419.19 31.84 417.86 31.84L417.86 31.84Q416.49 31.84 415.39 32.30Q414.29 32.75 413.50 33.56Q412.72 34.37 412.30 35.48Q411.89 36.60 411.89 37.92ZM408.92 62.71L419.92 48.97Q420.34 48.45 420.71 47.96Q421.07 47.47 421.42 46.98L421.42 46.98Q420.19 47.77 418.72 48.17Q417.25 48.58 415.63 48.58L415.63 48.58Q413.80 48.58 412.03 47.94Q410.27 47.30 408.90 46.02Q407.52 44.73 406.68 42.83Q405.83 40.93 405.83 38.38L405.83 38.38Q405.83 36.01 406.72 33.93Q407.60 31.84 409.19 30.28Q410.78 28.71 413.01 27.80Q415.24 26.89 417.94 26.89L417.94 26.89Q420.66 26.89 422.82 27.75Q424.99 28.61 426.52 30.15Q428.06 31.70 428.88 33.85Q429.70 36.01 429.70 38.58L429.70 38.58Q429.70 40.22 429.42 41.69Q429.13 43.16 428.62 44.52Q428.10 45.88 427.37 47.18Q426.63 48.48 425.73 49.75L425.73 49.75L417.62 61.32Q417.20 61.90 416.37 62.31Q415.54 62.71 414.48 62.71L414.48 62.71L408.92 62.71ZM459.42 45L459.42 45Q459.42 49.63 458.42 53.05Q457.43 56.47 455.68 58.70Q453.93 60.92 451.54 62.02Q449.15 63.11 446.38 63.11L446.38 63.11Q443.61 63.11 441.25 62.02Q438.88 60.92 437.14 58.70Q435.41 56.47 434.43 53.05Q433.45 49.63 433.45 45L433.45 45Q433.45 40.34 434.43 36.94Q435.41 33.53 437.14 31.30Q438.88 29.07 441.25 27.98Q443.61 26.89 446.38 26.89L446.38 26.89Q449.15 26.89 451.54 27.98Q453.93 29.07 455.68 31.30Q457.43 33.53 458.42 36.94Q459.42 40.34 459.42 45ZM453.17 45L453.17 45Q453.17 41.15 452.60 38.63Q452.04 36.11 451.10 34.61Q450.15 33.12 448.93 32.52Q447.70 31.92 446.38 31.92L446.38 31.92Q445.08 31.92 443.87 32.52Q442.66 33.12 441.73 34.61Q440.80 36.11 440.24 38.63Q439.69 41.15 439.69 45L439.69 45Q439.69 48.85 440.24 51.37Q440.80 53.89 441.73 55.39Q442.66 56.88 443.87 57.48Q445.08 58.08 446.38 58.08L446.38 58.08Q447.70 58.08 448.93 57.48Q450.15 56.88 451.10 55.39Q452.04 53.89 452.60 51.37Q453.17 48.85 453.17 45Z" fill="#999999"/></svg>