<svg xmlns="http://www.w3.org/2000/svg" xmlns:xlink="http://www.w3.org/1999/xlink" width="300" height="250" viewBox="0 0 300 250"><rect width="100%" height="100%" fill="#DDDDDD"/><path d="M61.52 118.91L58.86 118.44Q59.16 116.31 60.05 114.70Q60.93 113.09 62.25 112.01Q63.57 110.94 65.28 110.39Q67.00 109.85 68.96 109.85L68.96 109.85Q71.01 109.85 72.66 110.43Q74.31 111.02 75.48 112.05Q76.65 113.09 77.28 114.48Q77.90 115.88 77.90 117.50L77.90 117.50Q77.90 118.91 77.58 119.99Q77.27 121.06 76.67 121.86Q76.08 122.66 75.20 123.22Q74.31 123.77 73.21 124.14L73.21 124.14Q75.87 124.98 77.18 126.70Q78.50 128.42 78.50 131.03L78.50 131.03Q78.50 133.24 77.68 134.94Q76.86 136.64 75.46 137.80Q74.07 138.96 72.23 139.55Q70.40 140.15 68.35 140.15L68.35 140.15Q66.11 140.15 64.45 139.64Q62.79 139.12 61.56 138.12Q60.33 137.12 59.47 135.66Q58.61 134.20 58.00 132.30L58.00 132.30L60.23 131.38Q61.11 131.01 61.88 131.18Q62.65 131.35 63.00 132.01L63.00 132.01Q63.37 132.73 63.81 133.43Q64.25 134.12 64.86 134.67Q65.48 135.21 66.31 135.55Q67.14 135.89 68.29 135.89L68.29 135.89Q69.58 135.89 70.54 135.47Q71.51 135.04 72.15 134.37Q72.80 133.69 73.11 132.86Q73.43 132.03 73.43 131.19L73.43 131.19Q73.43 130.13 73.21 129.25Q72.98 128.38 72.26 127.77Q71.55 127.15 70.20 126.80Q68.86 126.46 66.61 126.46L66.61 126.46L66.61 122.85Q68.47 122.83 69.70 122.50Q70.93 122.17 71.66 121.59Q72.39 121.00 72.67 120.18Q72.96 119.36 72.96 118.38L72.96 118.38Q72.96 116.29 71.79 115.20Q70.62 114.11 68.68 114.11L68.68 114.11Q67.77 114.11 67.02 114.37Q66.26 114.63 65.65 115.09Q65.05 115.55 64.64 116.16Q64.23 116.78 64.02 117.52L64.02 117.52Q63.67 118.46 63.11 118.77Q62.55 119.08 61.52 118.91L61.52 118.91ZM103.18 125.00L103.18 125.00Q103.18 128.87 102.35 131.73Q101.52 134.59 100.05 136.46Q98.59 138.32 96.59 139.24Q94.59 140.15 92.27 140.15L92.27 140.15Q89.96 140.15 87.98 139.24Q86.00 138.32 84.54 136.46Q83.09 134.59 82.27 131.73Q81.45 128.87 81.45 125.00L81.45 125.00Q81.45 121.10 82.27 118.26Q83.09 115.41 84.54 113.54Q86.00 111.67 87.98 110.76Q89.96 109.85 92.27 109.85L92.27 109.85Q94.59 109.85 96.59 110.76Q98.59 111.67 100.05 113.54Q101.52 115.41 102.35 118.26Q103.18 121.10 103.18 125.00ZM97.95 125.00L97.95 125.00Q97.95 121.78 97.48 119.67Q97.01 117.56 96.22 116.31Q95.43 115.06 94.40 114.56Q93.38 114.05 92.27 114.05L92.27 114.05Q91.19 114.05 90.17 114.56Q89.16 115.06 88.38 116.31Q87.60 117.56 87.14 119.67Q86.68 121.78 86.68 125.00L86.68 125.00Q86.68 128.22 87.14 130.33Q87.60 132.44 88.38 133.69Q89.16 134.94 90.17 135.44Q91.19 135.95 92.27 135.95L92.27 135.95Q93.38 135.95 94.40 135.44Q95.43 134.94 96.22 133.69Q97.01 132.44 97.48 130.33Q97.95 128.22 97.95 125.00ZM126.96 125.00L126.96 125.00Q126.96 128.87 126.13 131.73Q125.30 134.59 123.83 136.46Q122.37 138.32 120.37 139.24Q118.37 140.15 116.05 140.15L116.05 140.15Q113.74 140.15 111.76 139.24Q109.78 138.32 108.32 136.46Q106.87 134.59 106.05 131.73Q105.23 128.87 105.23 125.00L105.23 125.00Q105.23 121.10 106.05 118.26Q106.87 115.41 108.32 113.54Q109.78 111.67 111.76 110.76Q113.74 109.85 116.05 109.85L116.05 109.85Q118.37 109.85 120.37 110.76Q122.37 111.67 123.83 113.54Q125.30 115.41 126.13 118.26Q126.96 121.10 126.96 125.00ZM121.73 125.00L121.73 125.00Q121.73 121.78 121.26 119.67Q120.79 117.56 120.00 116.31Q119.21 115.06 118.18 114.56Q117.16 114.05 116.05 114.05L116.05 114.05Q114.97 114.05 113.95 114.56Q112.94 115.06 112.16 116.31Q111.38 117.56 110.92 119.67Q110.46 121.78 110.46 125.00L110.46 125.00Q110.46 128.22 110.92 130.33Q111.38 132.44 112.16 133.69Q112.94 134.94 113.95 135.44Q114.97 135.95 116.05 135.95L116.05 135.95Q117.16 135.95 118.18 135.44Q119.21 134.94 120.00 133.69Q120.79 132.44 121.26 130.33Q121.73 128.22 121.73 125.00ZM159.51 133.04L156.83 135.68L149.88 128.73L142.87 135.72L140.18 133.08L147.19 126.05L140.51 119.36L143.17 116.70L149.86 123.38L156.50 116.74L159.20 119.40L152.54 126.07L159.51 133.04ZM184.19 135.11L191.80 135.11Q192.62 135.11 193.10 135.57Q193.58 136.03 193.58 136.79L193.58 136.79L193.58 139.82L173.25 139.82L173.25 138.14Q173.25 137.63 173.46 137.06Q173.68 136.50 174.15 136.05L174.15 136.05L183.15 127.03Q184.28 125.88 185.17 124.84Q186.06 123.79 186.65 122.77Q187.25 121.74 187.57 120.68Q187.88 119.63 187.88 118.46L187.88 118.46Q187.88 117.39 187.58 116.58Q187.27 115.77 186.71 115.22Q186.14 114.67 185.35 114.39Q184.56 114.11 183.58 114.11L183.58 114.11Q182.68 114.11 181.91 114.37Q181.14 114.63 180.54 115.09Q179.95 115.55 179.54 116.16Q179.13 116.78 178.93 117.52L178.93 117.52Q178.58 118.46 178.02 118.77Q177.47 119.08 176.42 118.91L176.42 118.91L173.76 118.44Q174.07 116.31 174.95 114.70Q175.83 113.09 177.15 112.01Q178.47 110.94 180.19 110.39Q181.90 109.85 183.87 109.85L183.87 109.85Q185.92 109.85 187.62 110.46Q189.32 111.06 190.53 112.17Q191.74 113.27 192.41 114.83Q193.09 116.39 193.09 118.30L193.09 118.30Q193.09 119.94 192.61 121.33Q192.13 122.72 191.32 124.00Q190.51 125.27 189.42 126.46Q188.33 127.64 187.15 128.87L187.15 128.87L180.46 135.70Q181.43 135.41 182.38 135.26Q183.33 135.11 184.19 135.11L184.19 135.11ZM204.84 114.77L203.79 120.94Q204.78 120.74 205.68 120.64Q206.58 120.55 207.42 120.55L207.42 120.55Q209.76 120.55 211.54 121.25Q213.32 121.95 214.53 123.18Q215.74 124.41 216.36 126.06Q216.97 127.71 216.97 129.61L216.97 129.61Q216.97 131.97 216.14 133.92Q215.31 135.86 213.84 137.25Q212.36 138.63 210.34 139.39Q208.32 140.15 205.94 140.15L205.94 140.15Q204.55 140.15 203.30 139.86Q202.05 139.58 200.95 139.09Q199.86 138.61 198.92 137.99Q197.99 137.36 197.25 136.66L197.25 136.66L198.81 134.51Q199.30 133.81 200.10 133.81L200.10 133.81Q200.61 133.81 201.15 134.14Q201.68 134.47 202.37 134.86Q203.05 135.25 203.99 135.58Q204.92 135.91 206.23 135.91L206.23 135.91Q207.63 135.91 208.69 135.45Q209.76 135.00 210.46 134.19Q211.17 133.38 211.53 132.27Q211.89 131.15 211.89 129.84L211.89 129.84Q211.89 127.42 210.49 126.06Q209.08 124.69 206.33 124.69L206.33 124.69Q204.22 124.69 202.01 125.47L202.01 125.47L198.85 124.57L201.31 110.18L215.95 110.18L215.95 112.33Q215.95 113.42 215.27 114.09Q214.60 114.77 212.98 114.77L212.98 114.77L204.84 114.77ZM242.00 125.00L242.00 125.00Q242.00 128.87 241.17 131.73Q240.34 134.59 238.88 136.46Q237.41 138.32 235.41 139.24Q233.41 140.15 231.10 140.15L231.10 140.15Q228.78 140.15 226.80 139.24Q224.82 138.32 223.37 136.46Q221.91 134.59 221.09 131.73Q220.27 128.87 220.27 125.00L220.27 125.00Q220.27 121.10 221.09 118.26Q221.91 115.41 223.37 113.54Q224.82 111.67 226.80 110.76Q228.78 109.85 231.10 109.85L231.10 109.85Q233.41 109.85 235.41 110.76Q237.41 111.67 238.88 113.54Q240.34 115.41 241.17 118.26Q242.00 121.10 242.00 125.00ZM236.78 125.00L236.78 125.00Q236.78 121.78 236.31 119.67Q235.83 117.56 235.04 116.31Q234.25 115.06 233.23 114.56Q232.20 114.05 231.10 114.05L231.10 114.05Q230.01 114.05 229.00 114.56Q227.98 115.06 227.20 116.31Q226.42 117.56 225.96 119.67Q225.50 121.78 225.50 125.00L225.50 125.00Q225.50 128.22 225.96 130.33Q226.42 132.44 227.20 133.69Q227.98 134.94 229.00 135.44Q230.01 135.95 231.10 135.95L231.10 135.95Q232.20 135.95 233.23 135.44Q234.25 134.94 235.04 133.69Q235.83 132.44 236.31 130.33Q236.78 128.22 236.78 125.00Z" fill="#999999"/></svg>