<svg xmlns="http://www.w3.org/2000/svg" xmlns:xlink="http://www.w3.org/1999/xlink" width="336" height="280" viewBox="0 0 336 280"><rect width="100%" height="100%" fill="#DDDDDD"/><path d="M70.89 133.32L67.97 132.80Q68.30 130.46 69.27 128.69Q70.24 126.93 71.69 125.75Q73.14 124.56 75.02 123.97Q76.90 123.37 79.06 123.37L79.06 123.37Q81.31 123.37 83.12 124.01Q84.93 124.65 86.21 125.79Q87.50 126.93 88.18 128.46Q88.87 129.99 88.87 131.76L88.87 131.76Q88.87 133.32 88.52 134.50Q88.17 135.68 87.52 136.56Q86.87 137.43 85.90 138.04Q84.93 138.65 83.72 139.05L83.72 139.05Q86.64 139.98 88.08 141.87Q89.52 143.76 89.52 146.61L89.52 146.61Q89.52 149.04 88.62 150.91Q87.72 152.78 86.19 154.05Q84.66 155.32 82.65 155.97Q80.63 156.63 78.38 156.63L78.38 156.63Q75.93 156.63 74.11 156.06Q72.29 155.50 70.94 154.40Q69.59 153.30 68.64 151.70Q67.70 150.10 67.02 148.01L67.02 148.01L69.47 147.00Q70.44 146.59 71.28 146.78Q72.13 146.97 72.51 147.69L72.51 147.69Q72.92 148.48 73.40 149.25Q73.88 150.01 74.56 150.61Q75.23 151.20 76.14 151.58Q77.06 151.95 78.32 151.95L78.32 151.95Q79.73 151.95 80.79 151.49Q81.85 151.02 82.56 150.28Q83.27 149.54 83.61 148.63Q83.96 147.72 83.96 146.79L83.96 146.79Q83.96 145.62 83.72 144.67Q83.47 143.71 82.68 143.04Q81.89 142.36 80.42 141.98Q78.95 141.60 76.47 141.60L76.47 141.60L76.47 137.64Q78.52 137.61 79.87 137.25Q81.22 136.89 82.02 136.25Q82.82 135.61 83.13 134.71Q83.45 133.81 83.45 132.73L83.45 132.73Q83.45 130.44 82.16 129.24Q80.88 128.05 78.74 128.05L78.74 128.05Q77.75 128.05 76.92 128.33Q76.09 128.61 75.42 129.12Q74.76 129.63 74.31 130.30Q73.86 130.98 73.64 131.79L73.64 131.79Q73.25 132.82 72.63 133.16Q72.02 133.50 70.89 133.32L70.89 133.32ZM96.99 133.32L94.06 132.80Q94.40 130.46 95.37 128.69Q96.34 126.93 97.79 125.75Q99.24 124.56 101.12 123.97Q103.00 123.37 105.16 123.37L105.16 123.37Q107.41 123.37 109.22 124.01Q111.03 124.65 112.31 125.79Q113.59 126.93 114.28 128.46Q114.97 129.99 114.97 131.76L114.97 131.76Q114.97 133.32 114.62 134.50Q114.27 135.68 113.62 136.56Q112.97 137.43 112.00 138.04Q111.03 138.65 109.81 139.05L109.81 139.05Q112.74 139.98 114.18 141.87Q115.62 143.76 115.62 146.61L115.62 146.61Q115.62 149.04 114.72 150.91Q113.82 152.78 112.29 154.05Q110.76 155.32 108.75 155.97Q106.73 156.63 104.48 156.63L104.48 156.63Q102.03 156.63 100.21 156.06Q98.39 155.50 97.04 154.40Q95.69 153.30 94.74 151.70Q93.80 150.10 93.12 148.01L93.12 148.01L95.57 147.00Q96.54 146.59 97.38 146.78Q98.23 146.97 98.61 147.69L98.61 147.69Q99.02 148.48 99.50 149.25Q99.98 150.01 100.66 150.61Q101.33 151.20 102.24 151.58Q103.16 151.95 104.42 151.95L104.42 151.95Q105.83 151.95 106.89 151.49Q107.95 151.02 108.66 150.28Q109.37 149.54 109.71 148.63Q110.06 147.72 110.06 146.79L110.06 146.79Q110.06 145.62 109.81 144.67Q109.57 143.71 108.78 143.04Q107.99 142.36 106.52 141.98Q105.05 141.60 102.57 141.60L102.57 141.60L102.57 137.64Q104.62 137.61 105.97 137.25Q107.32 136.89 108.12 136.25Q108.92 135.61 109.23 134.71Q109.55 133.81 109.55 132.73L109.55 132.73Q109.55 130.44 108.26 129.24Q106.98 128.05 104.84 128.05L104.84 128.05Q103.85 128.05 103.02 128.33Q102.19 128.61 101.52 129.12Q100.86 129.63 100.41 130.30Q99.96 130.98 99.73 131.79L99.73 131.79Q99.35 132.82 98.73 133.16Q98.12 133.50 96.99 133.32L96.99 133.32ZM139.13 123.73L129.48 135.54L128.35 136.94Q129.30 136.47 130.39 136.21Q131.48 135.95 132.74 135.95L132.74 135.95Q134.59 135.95 136.33 136.56Q138.07 137.16 139.40 138.39Q140.73 139.62 141.54 141.44Q142.35 143.26 142.35 145.69L142.35 145.69Q142.35 147.96 141.52 149.96Q140.69 151.95 139.18 153.43Q137.67 154.92 135.54 155.77Q133.42 156.63 130.85 156.63L130.85 156.63Q128.24 156.63 126.17 155.79Q124.10 154.96 122.64 153.47Q121.18 151.97 120.40 149.87Q119.63 147.76 119.63 145.20L119.63 145.20Q119.63 142.90 120.56 140.48Q121.49 138.06 123.45 135.45L123.45 135.45L131.21 125.04Q131.62 124.50 132.39 124.11Q133.17 123.73 134.18 123.73L134.18 123.73L139.13 123.73ZM130.74 152.08L130.74 152.08Q132.07 152.08 133.18 151.63Q134.29 151.18 135.09 150.37Q135.89 149.56 136.34 148.47Q136.79 147.38 136.79 146.10L136.79 146.10Q136.79 144.70 136.37 143.59Q135.94 142.47 135.15 141.70Q134.36 140.92 133.26 140.52Q132.16 140.11 130.83 140.11L130.83 140.11Q129.50 140.11 128.42 140.56Q127.34 141.01 126.58 141.81Q125.81 142.61 125.39 143.70Q124.96 144.79 124.96 146.05L124.96 146.05Q124.96 147.40 125.33 148.52Q125.70 149.63 126.43 150.42Q127.16 151.20 128.24 151.64Q129.32 152.08 130.74 152.08ZM178.44 148.82L175.49 151.72L167.87 144.09L160.17 151.77L157.22 148.86L164.92 141.15L157.58 133.81L160.51 130.89L167.84 138.22L175.13 130.93L178.10 133.86L170.79 141.17L178.44 148.82ZM205.53 151.09L213.88 151.09Q214.78 151.09 215.31 151.60Q215.84 152.10 215.84 152.94L215.84 152.94L215.84 156.27L193.52 156.27L193.52 154.42Q193.52 153.86 193.75 153.24Q193.99 152.62 194.50 152.13L194.50 152.13L204.38 142.23Q205.62 140.97 206.60 139.82Q207.58 138.67 208.23 137.55Q208.88 136.42 209.23 135.26Q209.58 134.10 209.58 132.82L209.58 132.82Q209.58 131.65 209.24 130.76Q208.91 129.88 208.29 129.27Q207.67 128.66 206.80 128.36Q205.94 128.05 204.86 128.05L204.86 128.05Q203.87 128.05 203.02 128.33Q202.18 128.61 201.53 129.12Q200.87 129.63 200.42 130.30Q199.97 130.98 199.75 131.79L199.75 131.79Q199.37 132.82 198.76 133.16Q198.15 133.50 197.00 133.32L197.00 133.32L194.08 132.80Q194.42 130.46 195.38 128.69Q196.35 126.93 197.80 125.75Q199.25 124.56 201.13 123.97Q203.01 123.37 205.17 123.37L205.17 123.37Q207.42 123.37 209.29 124.04Q211.16 124.70 212.48 125.91Q213.81 127.13 214.55 128.84Q215.30 130.55 215.30 132.64L215.30 132.64Q215.30 134.44 214.77 135.97Q214.24 137.50 213.35 138.90Q212.46 140.29 211.27 141.60Q210.08 142.90 208.77 144.25L208.77 144.25L201.44 151.74Q202.49 151.43 203.54 151.26Q204.59 151.09 205.53 151.09L205.53 151.09ZM230.96 152.28L230.96 152.28Q232.33 152.28 233.36 151.89Q234.40 151.50 235.11 150.80Q235.81 150.10 236.18 149.13Q236.53 148.17 236.53 147.04L236.53 147.04Q236.53 144.36 235.05 142.99Q233.56 141.62 230.96 141.62L230.96 141.62Q228.34 141.62 226.86 142.99Q225.38 144.36 225.38 147.04L225.38 147.04Q225.38 148.17 225.74 149.13Q226.09 150.10 226.80 150.80Q227.51 151.50 228.55 151.89Q229.58 152.28 230.96 152.28ZM230.96 127.56L230.96 127.56Q229.72 127.56 228.82 127.94Q227.92 128.32 227.32 128.96Q226.72 129.60 226.44 130.44Q226.16 131.27 226.16 132.19L226.16 132.19Q226.16 133.16 226.40 134.07Q226.63 134.98 227.20 135.69Q227.76 136.40 228.68 136.83Q229.60 137.25 230.96 137.25L230.96 137.25Q232.31 137.25 233.23 136.83Q234.15 136.40 234.71 135.69Q235.28 134.98 235.51 134.07Q235.75 133.16 235.75 132.19L235.75 132.19Q235.75 131.27 235.46 130.44Q235.16 129.60 234.58 128.96Q233.99 128.32 233.09 127.94Q232.19 127.56 230.96 127.56ZM236.44 139.30L236.44 139.30Q239.41 140.27 240.83 142.26Q242.25 144.25 242.25 147.13L242.25 147.13Q242.25 149.29 241.43 151.05Q240.61 152.80 239.12 154.04Q237.64 155.28 235.56 155.95Q233.47 156.63 230.96 156.63L230.96 156.63Q228.44 156.63 226.35 155.95Q224.27 155.28 222.79 154.04Q221.30 152.80 220.48 151.05Q219.66 149.29 219.66 147.13L219.66 147.13Q219.66 144.25 221.08 142.26Q222.50 140.27 225.47 139.30L225.47 139.30Q223.10 138.31 221.92 136.49Q220.74 134.67 220.74 132.10L220.74 132.10Q220.74 130.26 221.49 128.66Q222.25 127.06 223.60 125.88Q224.95 124.70 226.83 124.04Q228.71 123.37 230.96 123.37L230.96 123.37Q233.21 123.37 235.08 124.04Q236.96 124.70 238.31 125.88Q239.66 127.06 240.42 128.66Q241.17 130.26 241.17 132.10L241.17 132.10Q241.17 134.67 239.99 136.49Q238.81 138.31 236.44 139.30ZM268.98 140L268.98 140Q268.98 144.25 268.07 147.39Q267.16 150.53 265.55 152.58Q263.94 154.62 261.75 155.63Q259.55 156.63 257.01 156.63L257.01 156.63Q254.47 156.63 252.30 155.63Q250.13 154.62 248.53 152.58Q246.93 150.53 246.03 147.39Q245.13 144.25 245.13 140L245.13 140Q245.13 135.72 246.03 132.60Q246.93 129.47 248.53 127.42Q250.13 125.37 252.30 124.37Q254.47 123.37 257.01 123.37L257.01 123.37Q259.55 123.37 261.75 124.37Q263.94 125.37 265.55 127.42Q267.16 129.47 268.07 132.60Q268.98 135.72 268.98 140ZM263.24 140L263.24 140Q263.24 136.47 262.73 134.15Q262.21 131.83 261.34 130.46Q260.48 129.09 259.35 128.54Q258.23 127.98 257.01 127.98L257.01 127.98Q255.82 127.98 254.70 128.54Q253.59 129.09 252.73 130.46Q251.88 131.83 251.37 134.15Q250.87 136.47 250.87 140L250.87 140Q250.87 143.53 251.37 145.85Q251.88 148.17 252.73 149.54Q253.59 150.91 254.70 151.46Q255.82 152.01 257.01 152.01L257.01 152.01Q258.23 152.01 259.35 151.46Q260.48 150.91 261.34 149.54Q262.21 148.17 262.73 145.85Q263.24 143.53 263.24 140Z" fill="#999999"/></svg>