<svg xmlns="http://www.w3.org/2000/svg" xmlns:xlink="http://www.w3.org/1999/xlink" width="320" height="100" viewBox="0 0 320 100"><rect width="100%" height="100%" fill="#DDDDDD"/><path d="M67.21 43.61L64.41 43.12Q64.73 40.88 65.66 39.20Q66.58 37.51 67.97 36.38Q69.36 35.25 71.15 34.68Q72.95 34.11 75.01 34.11L75.01 34.11Q77.16 34.11 78.89 34.72Q80.62 35.34 81.85 36.42Q83.07 37.51 83.73 38.97Q84.38 40.43 84.38 42.13L84.38 42.13Q84.38 43.61 84.05 44.74Q83.72 45.87 83.09 46.71Q82.47 47.55 81.55 48.13Q80.62 48.71 79.46 49.10L79.46 49.10Q82.26 49.98 83.63 51.78Q85.01 53.59 85.01 56.32L85.01 56.32Q85.01 58.64 84.15 60.43Q83.29 62.21 81.83 63.43Q80.36 64.64 78.44 65.27Q76.52 65.89 74.37 65.89L74.37 65.89Q72.02 65.89 70.28 65.35Q68.54 64.81 67.25 63.76Q65.96 62.71 65.06 61.18Q64.15 59.65 63.51 57.65L63.51 57.65L65.85 56.69Q66.78 56.30 67.58 56.48Q68.39 56.66 68.75 57.35L68.75 57.35Q69.14 58.11 69.60 58.84Q70.07 59.57 70.71 60.14Q71.36 60.71 72.23 61.06Q73.10 61.42 74.30 61.42L74.30 61.42Q75.66 61.42 76.67 60.98Q77.68 60.53 78.35 59.83Q79.03 59.12 79.36 58.25Q79.70 57.37 79.70 56.49L79.70 56.49Q79.70 55.38 79.46 54.46Q79.22 53.55 78.47 52.90Q77.72 52.26 76.31 51.89Q74.90 51.53 72.54 51.53L72.54 51.53L72.54 47.74Q74.49 47.72 75.78 47.38Q77.07 47.03 77.84 46.42Q78.60 45.81 78.90 44.95Q79.20 44.09 79.20 43.06L79.20 43.06Q79.20 40.86 77.98 39.72Q76.75 38.58 74.71 38.58L74.71 38.58Q73.76 38.58 72.97 38.85Q72.17 39.12 71.54 39.60Q70.90 40.09 70.47 40.73Q70.04 41.38 69.83 42.15L69.83 42.15Q69.46 43.14 68.87 43.46Q68.28 43.79 67.21 43.61L67.21 43.61ZM100.14 60.60L108.12 60.60Q108.98 60.60 109.49 61.08Q109.99 61.57 109.99 62.36L109.99 62.36L109.99 65.54L88.66 65.54L88.66 63.78Q88.66 63.24 88.89 62.65Q89.11 62.06 89.61 61.59L89.61 61.59L99.05 52.13Q100.23 50.92 101.17 49.83Q102.10 48.73 102.72 47.66Q103.35 46.58 103.68 45.47Q104.01 44.37 104.01 43.14L104.01 43.14Q104.01 42.02 103.69 41.17Q103.37 40.32 102.78 39.74Q102.19 39.16 101.36 38.87Q100.53 38.58 99.50 38.58L99.50 38.58Q98.55 38.58 97.75 38.85Q96.94 39.12 96.32 39.60Q95.69 40.09 95.26 40.73Q94.83 41.38 94.62 42.15L94.62 42.15Q94.25 43.14 93.67 43.46Q93.09 43.79 92.00 43.61L92.00 43.61L89.20 43.12Q89.52 40.88 90.45 39.20Q91.37 37.51 92.76 36.38Q94.15 35.25 95.94 34.68Q97.74 34.11 99.80 34.11L99.80 34.11Q101.95 34.11 103.73 34.75Q105.52 35.38 106.79 36.54Q108.06 37.70 108.77 39.34Q109.47 40.97 109.47 42.97L109.47 42.97Q109.47 44.69 108.97 46.15Q108.46 47.61 107.62 48.95Q106.77 50.28 105.63 51.53Q104.49 52.77 103.24 54.06L103.24 54.06L96.23 61.22Q97.24 60.92 98.24 60.76Q99.24 60.60 100.14 60.60L100.14 60.60ZM135.83 50L135.83 50Q135.83 54.06 134.96 57.06Q134.09 60.06 132.56 62.02Q131.02 63.98 128.92 64.93Q126.83 65.89 124.40 65.89L124.40 65.89Q121.97 65.89 119.89 64.93Q117.82 63.98 116.29 62.02Q114.76 60.06 113.90 57.06Q113.04 54.06 113.04 50L113.04 50Q113.04 45.91 113.90 42.93Q114.76 39.94 116.29 37.98Q117.82 36.02 119.89 35.07Q121.97 34.11 124.40 34.11L124.40 34.11Q126.83 34.11 128.92 35.07Q131.02 36.02 132.56 37.98Q134.09 39.94 134.96 42.93Q135.83 45.91 135.83 50ZM130.35 50L130.35 50Q130.35 46.62 129.86 44.41Q129.36 42.20 128.53 40.88Q127.71 39.57 126.63 39.05Q125.56 38.52 124.40 38.52L124.40 38.52Q123.26 38.52 122.19 39.05Q121.13 39.57 120.31 40.88Q119.49 42.20 119.01 44.41Q118.53 46.62 118.53 50L118.53 50Q118.53 53.38 119.01 55.59Q119.49 57.80 120.31 59.12Q121.13 60.43 122.19 60.95Q123.26 61.48 124.40 61.48L124.40 61.48Q125.56 61.48 126.63 60.95Q127.71 60.43 128.53 59.12Q129.36 57.80 129.86 55.59Q130.35 53.38 130.35 50ZM169.98 58.43L167.16 61.20L159.87 53.91L152.52 61.24L149.70 58.47L157.05 51.10L150.05 44.09L152.84 41.29L159.85 48.30L166.82 41.34L169.65 44.13L162.67 51.12L169.98 58.43ZM199.41 61.57L205.00 61.57L205.00 65.54L187.80 65.54L187.80 61.57L194.10 61.57L194.10 43.44Q194.10 42.37 194.16 41.23L194.16 41.23L189.69 44.97Q189.30 45.27 188.93 45.35Q188.55 45.42 188.22 45.36Q187.89 45.29 187.63 45.13Q187.37 44.97 187.24 44.78L187.24 44.78L185.56 42.47L195.05 34.41L199.41 34.41L199.41 61.57ZM231.55 50L231.55 50Q231.55 54.06 230.68 57.06Q229.81 60.06 228.27 62.02Q226.74 63.98 224.64 64.93Q222.54 65.89 220.11 65.89L220.11 65.89Q217.68 65.89 215.61 64.93Q213.54 63.98 212.01 62.02Q210.48 60.06 209.62 57.06Q208.76 54.06 208.76 50L208.76 50Q208.76 45.91 209.62 42.93Q210.48 39.94 212.01 37.98Q213.54 36.02 215.61 35.07Q217.68 34.11 220.11 34.11L220.11 34.11Q222.54 34.11 224.64 35.07Q226.74 36.02 228.27 37.98Q229.81 39.94 230.68 42.93Q231.55 45.91 231.55 50ZM226.07 50L226.07 50Q226.07 46.62 225.58 44.41Q225.08 42.20 224.25 40.88Q223.43 39.57 222.35 39.05Q221.28 38.52 220.11 38.52L220.11 38.52Q218.97 38.52 217.91 39.05Q216.85 39.57 216.03 40.88Q215.21 42.20 214.73 44.41Q214.24 46.62 214.24 50L214.24 50Q214.24 53.38 214.73 55.59Q215.21 57.80 216.03 59.12Q216.85 60.43 217.91 60.95Q218.97 61.48 220.11 61.48L220.11 61.48Q221.28 61.48 222.35 60.95Q223.43 60.43 224.25 59.12Q225.08 57.80 225.58 55.59Q226.07 53.38 226.07 50ZM256.49 50L256.49 50Q256.49 54.06 255.62 57.06Q254.75 60.06 253.21 62.02Q251.68 63.98 249.58 64.93Q247.48 65.89 245.05 65.89L245.05 65.89Q242.62 65.89 240.55 64.93Q238.48 63.98 236.95 62.02Q235.42 60.06 234.56 57.06Q233.70 54.06 233.70 50L233.70 50Q233.70 45.91 234.56 42.93Q235.42 39.94 236.95 37.98Q238.48 36.02 240.55 35.07Q242.62 34.11 245.05 34.11L245.05 34.11Q247.48 34.11 249.58 35.07Q251.68 36.02 253.21 37.98Q254.75 39.94 255.62 42.93Q256.49 45.91 256.49 50ZM251.01 50L251.01 50Q251.01 46.62 250.52 44.41Q250.02 42.20 249.19 40.88Q248.37 39.57 247.29 39.05Q246.22 38.52 245.05 38.52L245.05 38.52Q243.91 38.52 242.85 39.05Q241.79 39.57 240.97 40.88Q240.15 42.20 239.67 44.41Q239.18 46.62 239.18 50L239.18 50Q239.18 53.38 239.67 55.59Q240.15 57.80 240.97 59.12Q241.79 60.43 242.85 60.95Q243.91 61.48 245.05 61.48L245.05 61.48Q246.22 61.48 247.29 60.95Q248.37 60.43 249.19 59.12Q250.02 57.80 250.52 55.59Q251.01 53.38 251.01 50Z" fill="#999999"/></svg>