<svg xmlns="http://www.w3.org/2000/svg" xmlns:xlink="http://www.w3.org/1999/xlink" width="160" height="600" viewBox="0 0 160 600"><rect width="100%" height="100%" fill="#DDDDDD"/><path d="M36.17 306.19L39.16 306.19L39.16 308.31L29.96 308.31L29.96 306.19L33.33 306.19L33.33 296.49Q33.33 295.92 33.36 295.31L33.36 295.31L30.97 297.31Q30.76 297.47 30.56 297.51Q30.36 297.55 30.18 297.52Q30.00 297.48 29.87 297.40Q29.73 297.31 29.66 297.21L29.66 297.21L28.76 295.98L33.83 291.66L36.17 291.66L36.17 306.19ZM51.53 291.69L46.60 297.72L46.02 298.44Q46.51 298.19 47.06 298.06Q47.62 297.93 48.27 297.93L48.27 297.93Q49.21 297.93 50.10 298.24Q50.99 298.55 51.67 299.18Q52.35 299.80 52.76 300.74Q53.18 301.67 53.18 302.91L53.18 302.91Q53.18 304.07 52.75 305.09Q52.33 306.11 51.55 306.87Q50.78 307.62 49.70 308.06Q48.61 308.50 47.30 308.50L47.30 308.50Q45.97 308.50 44.91 308.07Q43.85 307.65 43.10 306.88Q42.35 306.12 41.96 305.04Q41.56 303.97 41.56 302.66L41.56 302.66Q41.56 301.48 42.04 300.25Q42.52 299.01 43.52 297.68L43.52 297.68L47.48 292.35Q47.69 292.08 48.09 291.88Q48.48 291.69 49.00 291.69L49.00 291.69L51.53 291.69ZM47.24 306.18L47.24 306.18Q47.92 306.18 48.49 305.95Q49.06 305.72 49.47 305.30Q49.88 304.89 50.11 304.33Q50.34 303.77 50.34 303.12L50.34 303.12Q50.34 302.40 50.12 301.83Q49.90 301.26 49.50 300.87Q49.09 300.47 48.53 300.26Q47.97 300.06 47.29 300.06L47.29 300.06Q46.61 300.06 46.06 300.29Q45.51 300.52 45.11 300.93Q44.72 301.33 44.51 301.89Q44.29 302.45 44.29 303.09L44.29 303.09Q44.29 303.78 44.48 304.35Q44.67 304.92 45.04 305.32Q45.41 305.73 45.97 305.95Q46.52 306.18 47.24 306.18ZM66.70 300L66.70 300Q66.70 302.17 66.23 303.78Q65.77 305.38 64.95 306.43Q64.12 307.48 63.00 307.99Q61.88 308.50 60.58 308.50L60.58 308.50Q59.28 308.50 58.17 307.99Q57.06 307.48 56.25 306.43Q55.43 305.38 54.97 303.78Q54.51 302.17 54.51 300L54.51 300Q54.51 297.81 54.97 296.22Q55.43 294.62 56.25 293.57Q57.06 292.53 58.17 292.01Q59.28 291.50 60.58 291.50L60.58 291.50Q61.88 291.50 63.00 292.01Q64.12 292.53 64.95 293.57Q65.77 294.62 66.23 296.22Q66.70 297.81 66.70 300ZM63.77 300L63.77 300Q63.77 298.19 63.50 297.01Q63.24 295.83 62.80 295.12Q62.35 294.42 61.78 294.14Q61.20 293.86 60.58 293.86L60.58 293.86Q59.97 293.86 59.40 294.14Q58.83 294.42 58.40 295.12Q57.96 295.83 57.70 297.01Q57.44 298.19 57.44 300L57.44 300Q57.44 301.81 57.70 302.99Q57.96 304.17 58.40 304.88Q58.83 305.58 59.40 305.86Q59.97 306.14 60.58 306.14L60.58 306.14Q61.20 306.14 61.78 305.86Q62.35 305.58 62.80 304.88Q63.24 304.17 63.50 302.99Q63.77 301.81 63.77 300ZM84.96 304.51L83.46 305.99L79.56 302.09L75.62 306.01L74.12 304.53L78.05 300.59L74.30 296.84L75.80 295.34L79.55 299.09L83.27 295.37L84.79 296.86L81.05 300.60L84.96 304.51ZM102.73 291.69L97.80 297.72L97.22 298.44Q97.70 298.19 98.26 298.06Q98.82 297.93 99.46 297.93L99.46 297.93Q100.41 297.93 101.30 298.24Q102.19 298.55 102.87 299.18Q103.55 299.80 103.96 300.74Q104.37 301.67 104.37 302.91L104.37 302.91Q104.37 304.07 103.95 305.09Q103.52 306.11 102.75 306.87Q101.98 307.62 100.90 308.06Q99.81 308.50 98.50 308.50L98.50 308.50Q97.16 308.50 96.11 308.07Q95.05 307.65 94.30 306.88Q93.55 306.12 93.16 305.04Q92.76 303.97 92.76 302.66L92.76 302.66Q92.76 301.48 93.24 300.25Q93.71 299.01 94.71 297.68L94.71 297.68L98.68 292.35Q98.89 292.08 99.29 291.88Q99.68 291.69 100.20 291.69L100.20 291.69L102.73 291.69ZM98.44 306.18L98.44 306.18Q99.12 306.18 99.69 305.95Q100.26 305.72 100.67 305.30Q101.07 304.89 101.30 304.33Q101.53 303.77 101.53 303.12L101.53 303.12Q101.53 302.40 101.32 301.83Q101.10 301.26 100.69 300.87Q100.29 300.47 99.73 300.26Q99.16 300.06 98.49 300.06L98.49 300.06Q97.81 300.06 97.26 300.29Q96.70 300.52 96.31 300.93Q95.92 301.33 95.70 301.89Q95.48 302.45 95.48 303.09L95.48 303.09Q95.48 303.78 95.67 304.35Q95.86 304.92 96.24 305.32Q96.61 305.73 97.16 305.95Q97.72 306.18 98.44 306.18ZM117.90 300L117.90 300Q117.90 302.17 117.43 303.78Q116.97 305.38 116.14 306.43Q115.32 307.48 114.20 307.99Q113.08 308.50 111.78 308.50L111.78 308.50Q110.48 308.50 109.37 307.99Q108.26 307.48 107.44 306.43Q106.63 305.38 106.17 303.78Q105.71 302.17 105.71 300L105.71 300Q105.71 297.81 106.17 296.22Q106.63 294.62 107.44 293.57Q108.26 292.53 109.37 292.01Q110.48 291.50 111.78 291.50L111.78 291.50Q113.08 291.50 114.20 292.01Q115.32 292.53 116.14 293.57Q116.97 294.62 117.43 296.22Q117.90 297.81 117.90 300ZM114.97 300L114.97 300Q114.97 298.19 114.70 297.01Q114.44 295.83 113.99 295.12Q113.55 294.42 112.98 294.14Q112.40 293.86 111.78 293.86L111.78 293.86Q111.17 293.86 110.60 294.14Q110.03 294.42 109.60 295.12Q109.16 295.83 108.90 297.01Q108.64 298.19 108.64 300L108.64 300Q108.64 301.81 108.90 302.99Q109.16 304.17 109.60 304.88Q110.03 305.58 110.60 305.86Q111.17 306.14 111.78 306.14L111.78 306.14Q112.40 306.14 112.98 305.86Q113.55 305.58 113.99 304.88Q114.44 304.17 114.70 302.99Q114.97 301.81 114.97 300ZM131.24 300L131.24 300Q131.24 302.17 130.77 303.78Q130.31 305.38 129.48 306.43Q128.66 307.48 127.54 307.99Q126.42 308.50 125.12 308.50L125.12 308.50Q123.82 308.50 122.71 307.99Q121.60 307.48 120.78 306.43Q119.97 305.38 119.51 303.78Q119.05 302.17 119.05 300L119.05 300Q119.05 297.81 119.51 296.22Q119.97 294.62 120.78 293.57Q121.60 292.53 122.71 292.01Q123.82 291.50 125.12 291.50L125.12 291.50Q126.42 291.50 127.54 292.01Q128.66 292.53 129.48 293.57Q130.31 294.62 130.77 296.22Q131.24 297.81 131.24 300ZM128.31 300L128.31 300Q128.31 298.19 128.04 297.01Q127.78 295.83 127.33 295.12Q126.89 294.42 126.32 294.14Q125.74 293.86 125.12 293.86L125.12 293.86Q124.51 293.86 123.94 294.14Q123.37 294.42 122.94 295.12Q122.50 295.83 122.24 297.01Q121.98 298.19 121.98 300L121.98 300Q121.98 301.81 122.24 302.99Q122.50 304.17 122.94 304.88Q123.37 305.58 123.94 305.86Q124.51 306.14 125.12 306.14L125.12 306.14Q125.74 306.14 126.32 305.86Q126.89 305.58 127.33 304.88Q127.78 304.17 128.04 302.99Q128.31 301.81 128.31 300Z" fill="#999999"/></svg>