<svg xmlns="http://www.w3.org/2000/svg" xmlns:xlink="http://www.w3.org/1999/xlink" width="300" height="600" viewBox="0 0 300 600"><rect width="100%" height="100%" fill="#DDDDDD"/><path d="M61.52 293.91L58.86 293.44Q59.16 291.31 60.05 289.70Q60.93 288.09 62.25 287.01Q63.57 285.94 65.28 285.39Q67.00 284.85 68.96 284.85L68.96 284.85Q71.01 284.85 72.66 285.43Q74.31 286.02 75.48 287.05Q76.65 288.09 77.28 289.48Q77.90 290.88 77.90 292.50L77.90 292.50Q77.90 293.91 77.58 294.99Q77.27 296.06 76.67 296.86Q76.08 297.66 75.20 298.22Q74.31 298.77 73.21 299.14L73.21 299.14Q75.87 299.98 77.18 301.70Q78.50 303.42 78.50 306.03L78.50 306.03Q78.50 308.24 77.68 309.94Q76.86 311.64 75.46 312.80Q74.07 313.96 72.23 314.56Q70.40 315.15 68.35 315.15L68.35 315.15Q66.11 315.15 64.45 314.64Q62.79 314.12 61.56 313.12Q60.33 312.12 59.47 310.66Q58.61 309.20 58.00 307.30L58.00 307.30L60.23 306.38Q61.11 306.01 61.88 306.18Q62.65 306.36 63.00 307.01L63.00 307.01Q63.37 307.73 63.81 308.43Q64.25 309.12 64.86 309.67Q65.48 310.21 66.31 310.55Q67.14 310.89 68.29 310.89L68.29 310.89Q69.58 310.89 70.54 310.47Q71.51 310.05 72.15 309.37Q72.80 308.69 73.11 307.86Q73.43 307.03 73.43 306.19L73.43 306.19Q73.43 305.13 73.21 304.25Q72.98 303.38 72.26 302.77Q71.55 302.15 70.20 301.80Q68.86 301.46 66.61 301.46L66.61 301.46L66.61 297.85Q68.47 297.83 69.70 297.50Q70.93 297.17 71.66 296.59Q72.39 296.00 72.67 295.18Q72.96 294.36 72.96 293.38L72.96 293.38Q72.96 291.29 71.79 290.20Q70.62 289.11 68.68 289.11L68.68 289.11Q67.77 289.11 67.02 289.37Q66.26 289.63 65.65 290.09Q65.05 290.55 64.64 291.16Q64.23 291.78 64.02 292.52L64.02 292.52Q63.67 293.46 63.11 293.77Q62.55 294.08 61.52 293.91L61.52 293.91ZM103.18 300L103.18 300Q103.18 303.87 102.35 306.73Q101.52 309.59 100.05 311.46Q98.59 313.32 96.59 314.24Q94.59 315.15 92.27 315.15L92.27 315.15Q89.96 315.15 87.98 314.24Q86.00 313.32 84.54 311.46Q83.09 309.59 82.27 306.73Q81.45 303.87 81.45 300L81.45 300Q81.45 296.11 82.27 293.26Q83.09 290.41 84.54 288.54Q86.00 286.68 87.98 285.76Q89.96 284.85 92.27 284.85L92.27 284.85Q94.59 284.85 96.59 285.76Q98.59 286.68 100.05 288.54Q101.52 290.41 102.35 293.26Q103.18 296.11 103.18 300ZM97.95 300L97.95 300Q97.95 296.78 97.48 294.67Q97.01 292.56 96.22 291.31Q95.43 290.06 94.40 289.56Q93.38 289.05 92.27 289.05L92.27 289.05Q91.19 289.05 90.17 289.56Q89.16 290.06 88.38 291.31Q87.60 292.56 87.14 294.67Q86.68 296.78 86.68 300L86.68 300Q86.68 303.22 87.14 305.33Q87.60 307.44 88.38 308.69Q89.16 309.94 90.17 310.44Q91.19 310.95 92.27 310.95L92.27 310.95Q93.38 310.95 94.40 310.44Q95.43 309.94 96.22 308.69Q97.01 307.44 97.48 305.33Q97.95 303.22 97.95 300ZM126.96 300L126.96 300Q126.96 303.87 126.13 306.73Q125.30 309.59 123.83 311.46Q122.37 313.32 120.37 314.24Q118.37 315.15 116.05 315.15L116.05 315.15Q113.74 315.15 111.76 314.24Q109.78 313.32 108.32 311.46Q106.87 309.59 106.05 306.73Q105.23 303.87 105.23 300L105.23 300Q105.23 296.11 106.05 293.26Q106.87 290.41 108.32 288.54Q109.78 286.68 111.76 285.76Q113.74 284.85 116.05 284.85L116.05 284.85Q118.37 284.85 120.37 285.76Q122.37 286.68 123.83 288.54Q125.30 290.41 126.13 293.26Q126.96 296.11 126.96 300ZM121.73 300L121.73 300Q121.73 296.78 121.26 294.67Q120.79 292.56 120.00 291.31Q119.21 290.06 118.18 289.56Q117.16 289.05 116.05 289.05L116.05 289.05Q114.97 289.05 113.95 289.56Q112.94 290.06 112.16 291.31Q111.38 292.56 110.92 294.67Q110.46 296.78 110.46 300L110.46 300Q110.46 303.22 110.92 305.33Q111.38 307.44 112.16 308.69Q112.94 309.94 113.95 310.44Q114.97 310.95 116.05 310.95L116.05 310.95Q117.16 310.95 118.18 310.44Q119.21 309.94 120.00 308.69Q120.79 307.44 121.26 305.33Q121.73 303.22 121.73 300ZM159.51 308.04L156.83 310.68L149.88 303.73L142.87 310.72L140.18 308.08L147.19 301.05L140.51 294.36L143.17 291.70L149.86 298.38L156.50 291.74L159.20 294.40L152.54 301.07L159.51 308.04ZM191.18 285.18L182.39 295.94L181.36 297.21Q182.23 296.78 183.22 296.55Q184.21 296.31 185.36 296.31L185.36 296.31Q187.04 296.31 188.63 296.86Q190.22 297.42 191.43 298.53Q192.64 299.65 193.38 301.31Q194.12 302.97 194.12 305.19L194.12 305.19Q194.12 307.26 193.36 309.07Q192.60 310.89 191.23 312.24Q189.85 313.59 187.91 314.37Q185.98 315.15 183.64 315.15L183.64 315.15Q181.26 315.15 179.38 314.39Q177.49 313.63 176.16 312.27Q174.83 310.91 174.12 308.99Q173.41 307.07 173.41 304.74L173.41 304.74Q173.41 302.64 174.26 300.44Q175.11 298.24 176.90 295.86L176.90 295.86L183.97 286.37Q184.34 285.88 185.04 285.53Q185.75 285.18 186.67 285.18L186.67 285.18L191.18 285.18ZM183.54 311.01L183.54 311.01Q184.75 311.01 185.76 310.60Q186.78 310.19 187.50 309.45Q188.23 308.71 188.64 307.72Q189.05 306.72 189.05 305.56L189.05 305.56Q189.05 304.28 188.66 303.27Q188.27 302.25 187.56 301.55Q186.84 300.84 185.83 300.47Q184.83 300.10 183.62 300.10L183.62 300.10Q182.41 300.10 181.43 300.51Q180.44 300.92 179.75 301.65Q179.05 302.38 178.66 303.37Q178.27 304.37 178.27 305.51L178.27 305.51Q178.27 306.74 178.61 307.76Q178.95 308.77 179.61 309.49Q180.28 310.21 181.26 310.61Q182.25 311.01 183.54 311.01ZM218.22 300L218.22 300Q218.22 303.87 217.39 306.73Q216.56 309.59 215.10 311.46Q213.63 313.32 211.63 314.24Q209.63 315.15 207.32 315.15L207.32 315.15Q205.00 315.15 203.02 314.24Q201.04 313.32 199.59 311.46Q198.13 309.59 197.31 306.73Q196.49 303.87 196.49 300L196.49 300Q196.49 296.11 197.31 293.26Q198.13 290.41 199.59 288.54Q201.04 286.68 203.02 285.76Q205.00 284.85 207.32 284.85L207.32 284.85Q209.63 284.85 211.63 285.76Q213.63 286.68 215.10 288.54Q216.56 290.41 217.39 293.26Q218.22 296.11 218.22 300ZM213.00 300L213.00 300Q213.00 296.78 212.53 294.67Q212.05 292.56 211.26 291.31Q210.47 290.06 209.45 289.56Q208.42 289.05 207.32 289.05L207.32 289.05Q206.23 289.05 205.22 289.56Q204.20 290.06 203.42 291.31Q202.64 292.56 202.18 294.67Q201.72 296.78 201.72 300L201.72 300Q201.72 303.22 202.18 305.33Q202.64 307.44 203.42 308.69Q204.20 309.94 205.22 310.44Q206.23 310.95 207.32 310.95L207.32 310.95Q208.42 310.95 209.45 310.44Q210.47 309.94 211.26 308.69Q212.05 307.44 212.53 305.33Q213.00 303.22 213.00 300ZM242.00 300L242.00 300Q242.00 303.87 241.17 306.73Q240.34 309.59 238.88 311.46Q237.41 313.32 235.41 314.24Q233.41 315.15 231.10 315.15L231.10 315.15Q228.78 315.15 226.80 314.24Q224.82 313.32 223.37 311.46Q221.91 309.59 221.09 306.73Q220.27 303.87 220.27 300L220.27 300Q220.27 296.11 221.09 293.26Q221.91 290.41 223.37 288.54Q224.82 286.68 226.80 285.76Q228.78 284.85 231.10 284.85L231.10 284.85Q233.41 284.85 235.41 285.76Q237.41 286.68 238.88 288.54Q240.34 290.41 241.17 293.26Q242.00 296.11 242.00 300ZM236.78 300L236.78 300Q236.78 296.78 236.31 294.67Q235.83 292.56 235.04 291.31Q234.25 290.06 233.23 289.56Q232.20 289.05 231.10 289.05L231.10 289.05Q230.01 289.05 229.00 289.56Q227.98 290.06 227.20 291.31Q226.42 292.56 225.96 294.67Q225.50 296.78 225.50 300L225.50 300Q225.50 303.22 225.96 305.33Q226.42 307.44 227.20 308.69Q227.98 309.94 229.00 310.44Q230.01 310.95 231.10 310.95L231.10 310.95Q232.20 310.95 233.23 310.44Q234.25 309.94 235.04 308.69Q235.83 307.44 236.31 305.33Q236.78 303.22 236.78 300Z" fill="#999999"/></svg>