<svg xmlns="http://www.w3.org/2000/svg" xmlns:xlink="http://www.w3.org/1999/xlink" width="970" height="250" viewBox="0 0 970 250"><rect width="100%" height="100%" fill="#DDDDDD"/><path d="M207.77 106.07L207.77 106.07Q207.77 114.00 211.86 118.16Q215.96 122.31 223.49 122.31L223.49 122.31Q227.42 122.31 230.50 121.07Q233.58 119.83 235.67 117.66Q237.77 115.50 238.85 112.55Q239.93 109.61 239.93 106.20L239.93 106.20Q239.93 102.34 238.75 99.29Q237.57 96.25 235.41 94.15Q233.25 92.05 230.27 90.94Q227.29 89.83 223.75 89.83L223.75 89.83Q220.09 89.83 217.14 91.04Q214.19 92.25 212.09 94.41Q210.00 96.57 208.88 99.55Q207.77 102.53 207.77 106.07ZM199.85 172.36L229.26 135.61Q230.37 134.24 231.35 132.93Q232.33 131.62 233.25 130.31L233.25 130.31Q229.98 132.40 226.05 133.48Q222.12 134.56 217.79 134.56L217.79 134.56Q212.88 134.56 208.16 132.86Q203.45 131.16 199.78 127.72Q196.11 124.28 193.85 119.20Q191.59 114.13 191.59 107.31L191.59 107.31Q191.59 100.96 193.95 95.39Q196.31 89.83 200.57 85.63Q204.82 81.44 210.78 79.02Q216.74 76.60 223.95 76.60L223.95 76.60Q231.22 76.60 237.02 78.89Q242.81 81.18 246.91 85.31Q251.00 89.43 253.20 95.20Q255.39 100.96 255.39 107.84L255.39 107.84Q255.39 112.23 254.64 116.16Q253.88 120.09 252.51 123.72Q251.13 127.36 249.17 130.83Q247.20 134.30 244.78 137.71L244.78 137.71L223.10 168.62Q221.98 170.19 219.76 171.28Q217.53 172.36 214.71 172.36L214.71 172.36L199.85 172.36ZM268.23 77.64L333.66 77.64L333.66 84.65Q333.66 87.80 333.01 89.73Q332.35 91.66 331.70 92.97L331.70 92.97L295.80 166.85Q294.69 169.15 292.66 170.75Q290.63 172.36 287.22 172.36L287.22 172.36L275.50 172.36L312.11 99.98Q313.36 97.75 314.57 95.89Q315.78 94.02 317.29 92.32L317.29 92.32L271.96 92.32Q270.45 92.32 269.34 91.20Q268.23 90.09 268.23 88.58L268.23 88.58L268.23 77.64ZM410.82 125.00L410.82 125.00Q410.82 137.38 408.17 146.52Q405.52 155.65 400.83 161.61Q396.15 167.57 389.76 170.49Q383.38 173.40 375.98 173.40L375.98 173.40Q368.57 173.40 362.25 170.49Q355.93 167.57 351.28 161.61Q346.63 155.65 344.01 146.52Q341.39 137.38 341.39 125.00L341.39 125.00Q341.39 112.55 344.01 103.45Q346.63 94.35 351.28 88.39Q355.93 82.42 362.25 79.51Q368.57 76.60 375.98 76.60L375.98 76.60Q383.38 76.60 389.76 79.51Q396.15 82.42 400.83 88.39Q405.52 94.35 408.17 103.45Q410.82 112.55 410.82 125.00ZM394.12 125.00L394.12 125.00Q394.12 114.72 392.61 107.97Q391.11 101.22 388.58 97.23Q386.06 93.23 382.79 91.63Q379.51 90.02 375.98 90.02L375.98 90.02Q372.50 90.02 369.26 91.63Q366.02 93.23 363.53 97.23Q361.04 101.22 359.57 107.97Q358.09 114.72 358.09 125.00L358.09 125.00Q358.09 135.28 359.57 142.03Q361.04 148.78 363.53 152.77Q366.02 156.77 369.26 158.37Q372.50 159.98 375.98 159.98L375.98 159.98Q379.51 159.98 382.79 158.37Q386.06 156.77 388.58 152.77Q391.11 148.78 392.61 142.03Q394.12 135.28 394.12 125.00ZM514.84 150.68L506.25 159.13L484.05 136.92L461.65 159.26L453.07 150.81L475.47 128.34L454.12 106.99L462.63 98.47L483.98 119.83L505.21 98.60L513.85 107.12L492.57 128.41L514.84 150.68ZM593.70 157.29L618.00 157.29Q620.62 157.29 622.16 158.77Q623.70 160.24 623.70 162.66L623.70 162.66L623.70 172.36L558.72 172.36L558.72 166.99Q558.72 165.35 559.41 163.55Q560.10 161.75 561.60 160.30L561.60 160.30L590.36 131.48Q593.96 127.82 596.81 124.48Q599.66 121.14 601.56 117.86Q603.46 114.59 604.47 111.21Q605.49 107.84 605.49 104.11L605.49 104.11Q605.49 100.70 604.50 98.11Q603.52 95.52 601.72 93.76Q599.92 91.99 597.40 91.10Q594.88 90.22 591.73 90.22L591.73 90.22Q588.85 90.22 586.39 91.04Q583.94 91.86 582.04 93.33Q580.14 94.80 578.83 96.77Q577.52 98.73 576.86 101.09L576.86 101.09Q575.75 104.11 573.98 105.09Q572.21 106.07 568.87 105.55L568.87 105.55L560.36 104.04Q561.34 97.23 564.16 92.09Q566.97 86.94 571.20 83.51Q575.42 80.07 580.89 78.33Q586.36 76.60 592.65 76.60L592.65 76.60Q599.20 76.60 604.64 78.53Q610.07 80.46 613.94 84.00Q617.80 87.53 619.96 92.51Q622.12 97.49 622.12 103.58L622.12 103.58Q622.12 108.82 620.59 113.28Q619.05 117.73 616.46 121.79Q613.87 125.85 610.40 129.65Q606.93 133.45 603.13 137.38L603.13 137.38L581.78 159.19Q584.85 158.27 587.90 157.78Q590.95 157.29 593.70 157.29L593.70 157.29ZM659.66 92.32L656.32 112.03Q659.46 111.38 662.34 111.08Q665.22 110.79 667.91 110.79L667.91 110.79Q675.38 110.79 681.07 113.01Q686.77 115.24 690.64 119.17Q694.50 123.10 696.47 128.37Q698.43 133.65 698.43 139.74L698.43 139.74Q698.43 147.27 695.78 153.49Q693.13 159.71 688.41 164.14Q683.69 168.56 677.24 170.98Q670.79 173.40 663.19 173.40L663.19 173.40Q658.74 173.40 654.74 172.49Q650.75 171.57 647.24 170.03Q643.74 168.49 640.76 166.49Q637.78 164.50 635.42 162.27L635.42 162.27L640.40 155.39Q641.97 153.16 644.53 153.16L644.53 153.16Q646.16 153.16 647.87 154.21Q649.57 155.26 651.76 156.51Q653.96 157.75 656.94 158.80Q659.92 159.85 664.11 159.85L664.11 159.85Q668.56 159.85 671.97 158.40Q675.38 156.96 677.64 154.38Q679.90 151.79 681.04 148.22Q682.19 144.65 682.19 140.46L682.19 140.46Q682.19 132.73 677.70 128.37Q673.21 124.02 664.44 124.02L664.44 124.02Q657.69 124.02 650.62 126.51L650.62 126.51L640.53 123.62L648.39 77.64L695.16 77.64L695.16 84.52Q695.16 87.99 693.00 90.15Q690.83 92.32 685.66 92.32L685.66 92.32L659.66 92.32ZM778.41 125.00L778.41 125.00Q778.41 137.38 775.75 146.52Q773.10 155.65 768.42 161.61Q763.74 167.57 757.35 170.49Q750.96 173.40 743.56 173.40L743.56 173.40Q736.16 173.40 729.84 170.49Q723.52 167.57 718.87 161.61Q714.22 155.65 711.60 146.52Q708.98 137.38 708.98 125.00L708.98 125.00Q708.98 112.55 711.60 103.45Q714.22 94.35 718.87 88.39Q723.52 82.42 729.84 79.51Q736.16 76.60 743.56 76.60L743.56 76.60Q750.96 76.60 757.35 79.51Q763.74 82.42 768.42 88.39Q773.10 94.35 775.75 103.45Q778.41 112.55 778.41 125.00ZM761.70 125.00L761.70 125.00Q761.70 114.72 760.20 107.97Q758.69 101.22 756.17 97.23Q753.65 93.23 750.37 91.63Q747.10 90.02 743.56 90.02L743.56 90.02Q740.09 90.02 736.85 91.63Q733.61 93.23 731.12 97.23Q728.63 101.22 727.15 107.97Q725.68 114.72 725.68 125.00L725.68 125.00Q725.68 135.28 727.15 142.03Q728.63 148.78 731.12 152.77Q733.61 156.77 736.85 158.37Q740.09 159.98 743.56 159.98L743.56 159.98Q747.10 159.98 750.37 158.37Q753.65 156.77 756.17 152.77Q758.69 148.78 760.20 142.03Q761.70 135.28 761.70 125.00Z" fill="#999999"/></svg>